<svg id="Calque_1" data-name="Calque 1" xmlns="http://www.w3.org/2000/svg" xmlns:xlink="http://www.w3.org/1999/xlink" viewBox="0 0 96.14 81.09"><defs><style>.cls-1{fill:url(#Dégradé_sans_nom_24);}.cls-2{fill:none;}.cls-3{fill:#15438e;}.cls-4{fill:#e30613;}.cls-5{fill:url(#Dégradé_sans_nom_7);}</style><linearGradient id="Dégradé_sans_nom_24" x1="159.01" y1="57.63" x2="196.86" y2="74.93" gradientTransform="matrix(0.97, 0.05, 0.05, 0.92, -89.43, -19.83)" gradientUnits="userSpaceOnUse"><stop offset="0.11" stop-color="#e30613"/><stop offset="0.13" stop-color="#d40a1c"/><stop offset="0.23" stop-color="#9a1b3e"/><stop offset="0.32" stop-color="#6b2a5b"/><stop offset="0.4" stop-color="#453571"/><stop offset="0.48" stop-color="#2b3d81"/><stop offset="0.55" stop-color="#1b418b"/><stop offset="0.6" stop-color="#15438e"/></linearGradient><linearGradient id="Dégradé_sans_nom_7" x1="66.04" y1="73.55" x2="88.48" y2="60.95" gradientUnits="userSpaceOnUse"><stop offset="0.28" stop-color="#15438e"/><stop offset="1" stop-color="#e30613"/></linearGradient></defs><polygon class="cls-1" points="74.7 49.76 67.96 49.77 74.87 37.37 78.43 44.07 74.7 49.76"/><path class="cls-2" d="M162.63,70.09l1.14,2-1.14-2" transform="translate(-96.98 -8.48)"/><polygon class="cls-3" points="60.34 45.55 59.97 44.89 58.05 41.58 55.3 36.83 54.27 35.03 53.75 35.95 52.95 37.36 52.95 37.36 51.27 40.31 51.49 40.68 52.59 42.6 53.52 44.2 54.31 45.57 55.62 47.83 59.05 47.83 61.66 47.83 60.34 45.55"/><polygon class="cls-3" points="65.74 33.96 64.35 31.56 64 30.96 62.71 28.72 61.31 26.3 59.69 23.49 58.84 22.01 58.27 21.04 56.66 18.25 55.23 15.78 53.83 18.25 53.44 18.95 52.24 21.06 50.86 23.49 50.85 23.51 49.25 26.35 47.6 23.49 47.6 23.49 46.21 21.09 46.03 20.77 44.57 18.26 43.17 15.83 44.33 13.79 44.76 13.02 46.16 10.54 47.59 13.02 49.2 15.8 50.78 13.02 52.2 10.52 49.16 5.26 46.12 0 43.13 5.29 40.13 10.57 39.77 11.21 38.74 13.02 37.19 15.76 37.14 15.85 38.53 18.26 40.18 21.11 41.55 23.49 42.2 24.63 42.2 24.63 43.21 26.37 44.58 28.73 46.25 31.63 47.37 33.57 47.37 33.57 47.6 33.96 47.6 33.96 49.29 36.89 50.25 35.2 50.95 33.96 52.28 31.61 52.83 30.64 53.91 28.73 55.28 26.32 56.67 28.73 58.32 31.58 59.69 33.96 60.18 34.81 60.18 34.81 61.35 36.84 61.32 36.89 64.36 42.15 64.39 42.1 66.04 39.2 66.49 38.39 67.39 36.81 65.74 33.96"/><polygon class="cls-3" points="49.33 47.43 48.72 46.37 48.72 46.37 47.6 44.44 46.29 42.17 44.58 39.2 43.55 37.42 43.26 36.91 41.55 33.97 40.22 31.66 38.53 28.73 38.38 28.48 37.18 26.4 37.18 26.4 35.51 23.49 34.14 21.14 32.81 23.5 32.02 24.87 31.15 26.42 29.84 28.73 29.44 29.43 28.16 31.7 28.15 31.7 26.87 33.97 26.86 33.98 25.16 36.99 25.16 36.99 24.28 38.54 23.9 39.2 22.17 42.27 21.7 43.09 20.94 44.44 19.17 47.56 19.28 47.74 20.4 49.68 20.45 49.77 26.5 49.77 26.44 49.67 25.2 47.53 25.2 47.53 26.26 45.68 26.96 44.44 28.2 42.25 29.46 44.44 31.24 47.51 32.09 48.98 32.49 49.67 32.49 49.67 32.54 49.77 38.59 49.77 38.53 49.67 37.27 47.48 35.91 45.13 35.51 44.44 34.23 42.22 32.48 39.2 31.19 36.96 31.42 36.57 32.89 33.97 34 32.01 34.56 32.33 35.51 33.97 37.23 36.94 38.53 39.2 39.73 41.28 40.26 42.2 41.55 44.44 43.3 47.46 44.58 49.67 44.63 49.77 50.68 49.77 50.63 49.67 49.33 47.43"/><path class="cls-4" d="M127.78,86.91l-1.49-2.58-1.15-2-1.88-3.26L122.61,78l-.5-.87-1.87-3.24-1.17-2L117.44,69h0l-.23-.39-1.18-2-1.84-3.19L113,61.32l-1.17,2.07h0l-1,1.85L110,66.6l-1.15,2-.66,1.17L107,71.89l-1.12,2-.27.48L104,77.17l-1,1.74-.11.19-3,5.24-3,5.23h32.33l-1.13-1.95ZM118,84.33H106l1.08-1.91.53-.94,1.36-2.39,1.1-1.95.13-.22,1.73-3.07.85-1.48.29-.52.58,1,.57,1,1.89,3.26,1.14,2,1.57,2.72.32.56,1.13,2Z" transform="translate(-96.98 -8.48)"/><polygon class="cls-4" points="89.76 75.84 86.74 70.61 84.51 66.75 83.72 65.37 80.69 60.13 80.69 60.13 79.37 57.85 79.34 57.8 79.34 57.8 77.67 54.9 76.33 52.59 74.7 49.76 68.59 49.76 62.61 49.76 65.58 54.9 69.01 54.9 71.56 54.9 71.62 54.9 73.34 57.88 74.64 60.14 75.52 61.65 75.52 61.65 76.38 63.13 77.67 65.37 80.69 70.6 80.7 70.61 80.69 70.61 83.72 75.84 79.32 75.84 77.67 75.84 76.87 74.45 74.65 70.61 73.38 68.42 71.7 65.5 71.62 65.37 71.62 65.37 70.34 63.16 70.35 63.16 68.6 60.14 67.31 57.9 67.13 57.59 66.53 56.56 65.84 55.37 65.58 54.9 65.58 54.9 62.61 49.76 59.88 49.77 56.56 49.77 61.31 57.99 61.31 57.99 62.55 60.14 62.71 60.41 62.71 60.41 64.31 63.19 65.58 65.38 67.35 68.44 67.88 69.36 67.88 69.36 68.6 70.61 70.39 73.7 71.63 75.84 73.05 78.3 74.65 81.08 77.94 81.08 80.69 81.08 86.74 81.08 92.79 81.08 89.76 75.84"/><polygon class="cls-4" points="65.73 75.85 64.5 73.73 64.2 73.21 64.2 73.21 62.7 70.61 61.47 68.47 61.47 68.47 59.68 65.38 59.04 64.26 58.43 63.21 56.66 60.14 56.66 60.14 55.39 57.95 53.87 55.32 53.87 55.32 53.63 54.91 52.35 52.69 50.66 49.77 44.62 49.77 44.88 50.22 46.32 52.72 47.59 54.91 49.36 57.98 49.36 57.98 50.05 59.17 50.05 59.17 50.61 60.14 52.4 63.23 53.63 65.38 55.22 68.12 55.43 68.49 55.43 68.5 56.66 70.61 58.47 73.75 59.68 75.85 59.68 75.85 60.38 77.06 61.51 79.01 62.7 81.08 66.35 81.08 67.47 81.08 68.75 81.08 67.54 78.99 65.73 75.85"/><polygon class="cls-4" points="55.48 79.04 53.63 75.85 52.44 73.78 51.4 71.97 50.61 70.61 49.4 68.52 47.59 65.38 46.36 63.26 46.37 63.26 46.23 63.02 46.23 63.02 44.56 60.14 43.33 58 41.54 54.91 41.54 54.91 41.06 54.08 40.29 52.74 38.57 49.77 32.53 49.77 34.26 52.77 35.49 54.91 37.24 57.93 37.24 57.93 37.32 57.98 37.29 58.02 38.52 60.14 40.33 63.28 41.54 65.38 42.41 66.87 42.41 66.88 43.37 68.54 43.37 68.54 44.56 70.61 46.41 73.8 47.57 75.82 47.62 75.85 47.59 75.85 49.44 79.06 50.61 81.08 54.32 81.08 56.66 81.08 56.56 80.92 55.48 79.04"/><polygon class="cls-4" points="43.75 79.67 43.41 79.09 41.54 75.85 41.54 75.85 40.38 73.83 38.59 70.73 38.58 70.73 38.52 70.61 37.34 68.57 35.5 65.38 34.3 63.31 33.42 61.78 32.47 60.14 31.26 58.05 29.45 54.91 28.25 52.83 28.21 52.81 28.23 52.79 26.48 49.77 20.43 49.77 22.19 52.81 23.4 54.91 24.43 56.69 25.23 58.07 25.23 58.07 26.43 60.15 28.27 63.33 29.45 65.38 29.6 65.63 31.3 68.59 32.48 70.62 34.34 73.85 34.34 73.85 34.76 74.58 35.5 75.85 37.38 79.11 38.52 81.09 42.28 81.09 44.57 81.09 43.75 79.67 43.75 79.67"/><polygon class="cls-5" points="96.14 75.97 92.75 81.08 74.7 49.76 78.43 44.07 96.14 75.97"/><path class="cls-3" d="M164.53,32.48l-6.94,10.94a6,6,0,0,1,.74.12l6.58-10.37Z" transform="translate(-96.98 -8.48)"/><path class="cls-3" d="M165.35,34.05,158.4,45a6.46,6.46,0,0,1,.75.11l6.57-10.37Z" transform="translate(-96.98 -8.48)"/><path class="cls-3" d="M166.16,35.61l-6.94,10.94a6.29,6.29,0,0,1,.74.11l6.58-10.37Z" transform="translate(-96.98 -8.48)"/><path class="cls-3" d="M167,37.17,160,48.11a6.29,6.29,0,0,1,.74.11l6.58-10.37Z" transform="translate(-96.98 -8.48)"/><path class="cls-3" d="M167.78,38.73l-6.94,10.94a6,6,0,0,1,.74.11l6.58-10.37Z" transform="translate(-96.98 -8.48)"/></svg>